<svg width="640" height="480" xmlns="http://www.w3.org/2000/svg" xmlns:svg="http://www.w3.org/2000/svg">
 <!-- Created with SVG-edit - http://svg-edit.googlecode.com/ -->
 <g>
  <title>ContemPlant</title>
  <path stroke-opacity="0" stroke="#000000" d="m85.22703,384.001c0,-1.76875 0,-3.38889 0,-4.78357c0,-1.58393 -0.03471,-3.21319 0.00197,-4.91625c0.02634,-1.22271 0.55559,-2.79454 1.05619,-4.09406c0.58391,-1.51581 0.38024,-3.25055 0.42169,-4.74967c0.04228,-1.52935 0.64623,-3.04484 1.05619,-4.24498c0.54442,-1.59375 0.40694,-3.448 0.41971,-4.78503c0.0154,-1.61108 0.72725,-2.92036 1.23157,-4.55865c0.4342,-1.4105 0.51313,-2.93499 1.0956,-4.28509c0.61294,-1.4207 1.36828,-2.88209 1.86016,-4.26387c0.47319,-1.32926 0.2288,-2.92101 0.66602,-4.39358c0.46351,-1.56109 0.81595,-3.18853 1.38527,-4.62731c0.4953,-1.25169 1.02364,-2.76361 1.2286,-4.07579c0.27763,-1.77744 0.82465,-3.17579 1.40004,-4.59079c0.57539,-1.415 1.1224,-2.81335 1.40004,-4.59079c0.20497,-1.31217 0.72073,-2.85022 1.136,-4.04777c0.55301,-1.5948 0.60517,-3.48953 1.18943,-4.62704c0.77775,-1.51421 1.55207,-2.5942 1.93971,-4.12707c0.37558,-1.48517 0.24319,-3.15965 0.87492,-4.53978c0.66718,-1.45756 0.93883,-2.64281 1.47788,-4.28981c0.4039,-1.2341 0.74487,-2.98554 1.37047,-4.37706c0.67038,-1.49114 0.70816,-3.07131 1.08279,-4.42187c0.37885,-1.36577 1.10191,-2.74618 1.77149,-4.24498c0.51519,-1.15324 1.00813,-2.75562 1.06482,-4.33815c0.04411,-1.2311 0.68818,-3.00468 1.47123,-4.44664c0.6162,-1.1347 1.22488,-2.34369 1.4471,-4.09023c0.20496,-1.61108 0.63505,-2.91513 1.26234,-4.45871c0.47417,-1.16679 1.07686,-2.59717 1.64635,-4.06812c0.59703,-1.54209 1.0539,-2.69341 1.63357,-4.24498c0.48407,-1.29571 1.19787,-2.87294 1.40003,-4.06812c0.29424,-1.73952 1.09098,-3.06165 1.77345,-4.39593c0.63913,-1.24953 1.18231,-2.67906 1.77345,-4.09406c0.59116,-1.415 1.18231,-2.82998 1.77347,-4.24498c0.59114,-1.415 1.18206,-2.83014 1.62565,-3.89124c0.73856,-1.76664 1.26635,-3.16977 2.06904,-4.56102c0.68642,-1.18973 1.50255,-2.3587 2.06902,-3.61206c0.77306,-1.71045 1.32961,-3.14718 1.77345,-4.20814c0.74013,-1.76921 1.13518,-2.89383 2.16757,-4.59875c0.66964,-1.10584 1.54382,-2.07156 2.46311,-3.53749c0.64443,-1.02763 1.26486,-2.48193 1.87224,-3.89124c0.61234,-1.42083 1.12079,-2.51299 2.04512,-3.89124c0.73208,-1.09159 1.57699,-2.0788 2.60599,-3.89126c0.589,-1.03745 1.34318,-2.49154 2.07691,-3.53749c0.75574,-1.07732 1.76432,-2.46077 2.54491,-3.89124c0.57306,-1.05017 1.3914,-2.48401 2.14391,-3.53749c0.76374,-1.06919 1.90744,-2.82998 2.47495,-3.89124c0.56751,-1.06126 1.71563,-2.81754 2.47495,-3.89124c0.98941,-1.39903 1.56873,-2.50271 2.19711,-3.60116c0.95838,-1.67536 1.63339,-2.56792 2.36461,-3.53749c0.7701,-1.02113 1.59165,-2.03049 2.68555,-3.65041c1.04321,-1.54485 1.62667,-2.60335 2.24661,-3.56373c1.15861,-1.79479 1.76003,-2.60303 2.74664,-3.68045c1.0176,-1.11124 2.20157,-2.13742 3.01905,-2.80113c1.19367,-0.96915 2.69074,-1.99267 3.66391,-2.68996c0.92419,-0.6622 2.10386,-1.73995 3.01732,-2.68996c0.98429,-1.02369 2.0646,-2.09404 3.25798,-3.14691c0.80837,-0.71318 1.62962,-1.3888 3.08975,-2.82763c1.02355,-1.00863 1.62694,-1.77301 3.11167,-2.79492c1.16621,-0.80268 2.11232,-1.08954 3.81072,-2.39575c0.91982,-0.70741 1.75953,-1.62001 2.60699,-2.50455c0.81559,-0.85128 2.28627,-2.27603 3.27374,-3.05965c0.91062,-0.72263 2.10147,-1.7881 3.0789,-2.76367c0.749,-0.74757 2.11502,-2.00655 3.23777,-2.9025c0.59978,-0.47862 1.86534,-1.42523 3.17129,-2.31265c0.63784,-0.43344 2.44451,-1.54827 3.52694,-2.12249c0.98916,-0.52475 2.39923,-1.18344 3.71589,-2.00074c0.89918,-0.55816 2.20329,-1.53869 3.10353,-2.11307c1.75047,-1.11683 2.66846,-1.52571 3.60012,-1.89846c1.95191,-0.7809 3.02514,-1.07826 4.10654,-1.43384c1.07041,-0.35196 2.11103,-0.64474 3.86612,-1.415c1.11889,-0.49104 2.13994,-1.07923 3.62375,-1.76875c1.17259,-0.54488 2.31331,-1.00439 3.70579,-1.93767c1.04378,-0.69955 2.1801,-1.06841 3.5634,-1.39465c1.19381,-0.28155 2.32989,-1.01975 3.84051,-1.40526c1.16544,-0.29742 2.66176,-0.15853 3.84249,-0.23378c1.18576,-0.07557 2.64535,-0.65591 3.84247,-1.12611c1.16932,-0.45927 2.3645,-0.59357 3.84249,-0.62377c1.18224,-0.02416 2.38428,-0.07033 3.84249,-0.62377c1.201,-0.45582 2.65662,-1.05233 3.84247,-1.12611c1.47621,-0.09184 2.69692,0.00267 3.67302,-0.16979c1.4887,-0.26303 2.67241,-0.77904 3.88779,-1.11551c1.46989,-0.40694 2.87491,-0.49287 4.45925,-0.50232c0.93991,-0.00559 1.96263,0 3.57425,0c1.59832,0 2.60724,0 4.06146,0c0.96456,0 2.46314,0 4.07476,0c1.12859,0 2.28677,0 4.05356,0c1.18034,0 2.34883,0 3.49372,0c1.10936,0 2.68186,0 4.15378,0c0.96165,0 1.93507,0 4.00607,0c1.10936,0 2.25425,0 3.42273,0c1.77149,0 2.95382,0 4.1361,0c1.18228,0 2.95575,0 4.14002,0c1.19608,0 2.41585,0 3.67106,0c1.30248,0 2.65822,0 4.04937,0c1.40301,0 2.10154,0.00184 4.1499,0c1.30248,-0.00119 2.55841,0.00318 3.77745,-0.06367c1.19703,-0.06564 2.97352,-0.31016 4.14052,-0.5601c1.13669,-0.24347 2.20216,-0.56728 3.6587,-0.85018c1.19239,-0.23159 2.60108,-0.29361 4.10309,-0.2948c1.15031,-0.00089 2.59666,0 3.77894,0c1.47788,0 2.66016,0.00318 3.84249,0c1.47788,-0.00399 2.68713,0.02113 4.1361,-0.50232c1.15824,-0.41844 2.53334,-1.18109 3.673,-1.26408c1.40445,-0.10226 2.55444,-0.0848 4.02055,-0.62612c0.94532,-0.34902 2.30472,-0.88667 3.47694,-1.05181c1.25796,-0.17724 3.0248,-0.35588 3.90581,-0.59786c1.34,-0.36805 2.6589,-0.91716 3.99002,-1.44064c1.31335,-0.51649 2.14659,-0.91228 3.74421,-1.29736c1.36382,-0.3287 2.63265,-0.34505 3.79319,-0.79949c1.21309,-0.47501 2.64275,-1.48791 3.56268,-1.95269c1.27059,-0.64195 2.76854,-0.93154 3.9745,-1.08011c1.20596,-0.14857 2.70012,-0.44746 3.66389,-0.92123c1.54165,-0.75784 2.39533,-1.37832 3.5777,-2.08564c1.18246,-0.70738 2.37318,-1.46269 3.37745,-1.7947c1.45497,-0.48101 2.74644,-0.46839 4.14002,-0.65325c1.53317,-0.20338 2.61308,-0.46641 3.7144,-0.77265c1.10782,-0.30805 2.71442,-0.82805 4.19473,-1.37815c0.91948,-0.34169 2.19003,-0.85454 3.66168,-1.59186c1.01821,-0.51013 2.0135,-1.08626 3.49959,-1.76875c1.1996,-0.55093 2.42185,-1.03231 3.8898,-1.76875c1.01798,-0.5107 2.00791,-1.10414 3.49959,-1.7664c1.19559,-0.5308 2.40205,-0.97754 3.88782,-1.26878c0.97685,-0.19147 2.52089,-0.3484 3.65726,-0.91974c1.1066,-0.55635 2.29322,-1.78853 3.51339,-2.76632c0.96882,-0.77639 1.8998,-1.28004 3.33212,-1.94532c1.17737,-0.54685 2.38982,-1.037 3.92674,-1.37757c0.99074,-0.21954 2.59869,-0.49789 3.54811,-1.09898c1.22639,-0.77644 2.50939,-1.1363 3.7563,-1.8056c0.86937,-0.46663 2.30084,-1.44298 3.43162,-1.98452c1.30365,-0.62435 2.62954,-0.97709 3.48362,-1.87782c1.09429,-1.15411 2.17072,-1.97806 3.3991,-2.29141c1.4501,-0.36991 2.35663,-1.07058 3.3991,-2.29938c1.04238,-1.22866 1.7359,-2.16924 2.808,-3.35826c0.85783,-0.95137 2.29822,-1.35695 3.2513,-2.18852c1.15207,-1.00522 1.9426,-2.07742 3.25135,-2.81113c1.20348,-0.67468 1.91766,-1.94005 3.01903,-2.86095c1.05925,-0.88568 2.32939,-1.09455 3.35752,-2.24955c0.89197,-1.00203 2.13279,-1.7216 3.00401,-2.54346c0.96968,-0.91471 1.55572,-0.39266 1.55572,1.1261c0,1.6582 0,3.21205 0,4.80392c0,1.415 -0.0175,2.92105 0.41971,4.39357c0.46351,1.56111 0.88606,3.15 1.30446,4.74495c0.31327,1.19417 0.95335,2.95774 1.26901,4.34877c0.34737,1.53072 0.90505,2.70408 1.31628,4.40535c0.32288,1.33576 0.76032,3.04693 1.16533,4.04779c0.71594,1.76925 1.35989,3.14408 1.66829,4.59078c0.29681,1.3923 0.31769,2.84809 0.76749,4.6067c0.39022,1.52581 0.79667,3.21162 0.91925,4.67332c0.08889,1.05969 0.26438,3.40004 0.45913,4.66478c0.20259,1.31589 0.4686,2.64045 0.76257,3.94783c0.42386,1.88507 0.88033,3.6241 1.18034,4.72846c0.58262,2.1447 0.90865,3.19398 1.29928,4.79448c0.25771,1.05591 0.62515,3.18032 0.71652,4.77561c0.06071,1.05972 0.03843,3.18394 0.05985,4.77561c0.0143,1.0615 0.06278,2.66545 0.41308,4.77799c0.17995,1.0852 0.58916,2.74148 0.81187,4.53743c0.15722,1.26772 0.20521,2.61736 0.23051,4.03274c0.02656,1.4855 0.01579,3.84644 0.01579,5.49373c0,0.83601 0,2.51515 0,4.18013c0,1.62252 0,3.18375 0,4.7025c0,1.50463 0,3.02338 0,5.3888c0,0.81833 0,2.48331 0,4.16245c0,0.83601 0,3.28749 0,4.85107c0,1.53527 0,3.0847 0,3.87799c0,2.5178 0,4.34786 0,5.29828c0,1.93619 0,2.90781 0,3.87237c0,2.78048 0,4.48084 0,6.05383c0,0.74317 0,2.82056 0,4.70692c0,1.17504 0,2.84917 0,3.92692c0,2.12487 0.00005,3.71673 0,4.77799c-0.00014,2.12249 0.01358,3.71643 -0.05322,4.77561c-0.13422,2.12897 -0.45295,3.71403 -0.71652,4.73877c-0.38323,1.48984 -1.0505,3.22342 -1.54165,4.79359c-0.44262,1.41503 -0.53066,2.86436 -0.76853,4.26387c-0.30664,1.80429 -0.80447,2.88099 -1.50174,4.99079c-0.31386,0.94966 -0.77899,2.5266 -1.16041,3.65247c-0.62339,1.84013 -1.12816,3.119 -1.64732,4.40861c-0.50757,1.2609 -1.23158,2.98476 -1.83675,4.43336c-0.51208,1.22573 -1.2668,3.03221 -1.85795,4.44721c-0.44335,1.06126 -1.18228,2.83001 -1.62567,3.89124c-0.73894,1.76872 -1.18228,2.83001 -1.77343,4.24501c-0.73894,1.76875 -1.17714,2.83308 -1.92127,4.59843c-0.44028,1.04455 -1.03634,2.3241 -1.92122,3.8656c-0.59236,1.03192 -1.31714,2.88361 -1.82665,4.24501c-0.35495,0.94842 -1.25882,2.70888 -2.04665,3.99088c-0.56963,0.92688 -1.46768,2.56657 -2.03822,3.90951c-0.61351,1.44415 -0.86531,2.21984 -1.47788,3.69667c-0.85701,2.06625 -1.44604,3.21857 -2.36461,4.62763c-0.57175,0.87706 -1.78312,2.57947 -2.36461,3.53544c-0.6012,0.98833 -1.47833,2.55399 -2.36461,4.14388c-0.59146,1.06099 -1.18224,2.12254 -2.06902,3.71435c-0.88669,1.59165 -1.46841,2.65301 -2.06902,3.67754c-0.87311,1.48936 -1.74479,2.86053 -2.67595,4.0413c-0.61013,0.77372 -1.99794,2.1956 -2.77052,2.89602c-1.22531,1.11084 -2.11998,1.83403 -3.42079,3.12243c-0.90085,0.89225 -1.76337,1.86542 -2.60699,2.84415c-0.8194,0.95063 -1.93214,2.31937 -2.9715,3.51863c-0.65929,0.76076 -2.05116,2.1956 -2.82374,2.89602c-1.22531,1.11084 -2.1194,1.8349 -3.42079,3.12243c-0.90243,0.89279 -1.77049,1.87641 -2.66016,2.84415c-0.8838,0.96135 -2.20811,2.32048 -3.11023,3.13539c-0.90202,0.81485 -1.85677,1.59202 -3.34317,2.8642c-1.06412,0.91077 -2.1585,1.88704 -2.70946,2.39516c-1.11008,1.02374 -2.71288,2.61161 -3.21933,3.14632c-0.98208,1.03691 -1.87603,2.07037 -2.74883,2.98211c-1.51103,1.57847 -2.56337,2.39848 -3.56809,3.11741c-1.428,1.0218 -2.22611,1.60287 -3.05651,2.25104c-1.3055,1.01899 -2.62936,2.08565 -3.51609,2.79314c-0.88674,0.70749 -2.21465,1.77263 -3.5469,2.82968c-0.88529,0.70241 -1.75002,1.42728 -3.10355,2.32564c-1.30888,0.86872 -2.22173,1.30119 -3.60012,1.96447c-0.9584,0.46119 -2.49306,1.22481 -3.57152,1.81711c-1.10692,0.60795 -2.19864,1.25682 -3.81394,2.0883c-1.00075,0.51511 -1.9624,0.95276 -3.34317,1.52493c-1.33283,0.5523 -2.66372,1.0571 -3.94374,1.59985c-0.81611,0.34605 -2.30368,1.04296 -3.69072,1.83239c-0.75531,0.42988 -2.52202,1.50528 -3.54694,2.10368c-1.06773,0.62339 -2.14096,1.25202 -3.72004,2.03961c-0.97536,0.4865 -1.91946,0.89517 -3.28116,1.45071c-1.32936,0.54237 -2.66215,1.06358 -3.54884,1.41735c-1.77347,0.70754 -2.66021,1.06126 -3.99029,1.59186c-1.33008,0.5306 -2.6644,1.04776 -4.00603,1.61075c-0.92701,0.38902 -1.8934,0.81285 -3.41466,1.6107c-1.08144,0.5672 -2.1567,1.19556 -3.20548,1.81474c-1.87608,1.10768 -2.65046,1.60892 -3.73091,2.19679c-1.39489,0.75893 -2.57109,1.24878 -3.78336,1.78764c-1.5679,0.69691 -2.61655,1.247 -3.62181,1.76875c-1.38673,0.71979 -2.5553,1.22989 -3.76758,1.76875c-1.5679,0.69691 -2.61713,1.26513 -3.67498,1.76875c-1.57128,0.74803 -2.52251,1.06849 -3.54694,1.41498c-1.06822,0.36133 -2.15665,0.68746 -4.21882,1.41503c-0.97577,0.34427 -1.92921,0.7314 -3.91736,1.41498c-1.05911,0.36419 -2.16734,0.71159 -3.31638,0.99756c-1.1646,0.28981 -2.9397,0.5604 -4.1223,0.686c-1.18201,0.12555 -2.38365,0.17219 -4.13804,0.67478c-1.19645,0.34276 -2.34711,0.92038 -3.49372,1.44326c-1.10773,0.50518 -2.67559,1.11448 -3.66339,1.31037c-1.39187,0.27599 -2.31189,0.2605 -4.0767,0.69896c-0.90829,0.22563 -2.2961,0.75488 -3.79126,1.26405c-1.05988,0.36095 -2.16734,0.71159 -3.31638,0.99756c-1.1646,0.28981 -2.93848,0.58096 -4.1223,0.67008c-1.18116,0.0889 -2.36457,0.09711 -4.13804,0.1011c-1.18625,0.00264 -2.39614,0 -3.65331,0c-1.32812,0 -2.75081,0 -4.27993,0c-0.79412,0 -2.4119,0 -3.22375,0c-1.60006,0 -3.12917,0 -4.55187,0c-1.32812,0 -2.58529,0 -3.79518,0c-1.77715,0 -2.95305,0 -4.11123,0c-1.12859,0 -2.74022,0 -3.74715,0c-1.42542,0 -2.78433,0 -4.11639,0c-1.33008,0 -2.66018,0 -3.99026,0c-1.33008,0 -2.66018,0 -3.5469,0c-1.77347,0 -3.10355,0 -3.99029,0c-1.7732,0 -3.08777,0 -3.93707,0c-1.94292,0 -2.97152,0 -3.97351,0c-1.82173,0 -3.05649,0.00005 -3.91909,0c-1.76655,-0.00016 -3.08321,0.02046 -3.93042,-0.06369c-1.58662,-0.15762 -2.97276,-0.75056 -4.05798,-1.08128c-1.65587,-0.50464 -2.65279,-0.54318 -3.68017,-0.5869c-1.52447,-0.06494 -2.89462,0.03357 -4.37205,-0.07373c-0.94742,-0.06882 -2.41316,-0.66085 -3.69298,-1.10811c-1.40684,-0.49163 -2.63123,-0.55052 -3.91244,-0.71693c-1.32631,-0.17224 -2.64749,-0.52763 -3.50946,-0.79121c-1.23566,-0.37785 -3.04819,-0.8183 -4.00528,-0.86548c-1.49247,-0.07357 -2.67597,-0.00723 -4.15382,-0.01889c-1.19814,-0.00945 -2.50059,-0.09597 -3.96663,-0.50232c-1.21532,-0.33682 -2.39909,-0.85253 -3.88779,-1.11551c-0.9761,-0.17246 -2.49072,-0.15092 -3.70455,-0.15092c-1.40299,0 -2.69171,0 -4.1814,0c-1.03255,0 -2.04144,0 -3.81096,0c-1.40299,0 -2.61682,0 -3.81489,0c-1.29265,0 -2.76856,0 -3.9745,0c-1.20594,0 -2.68186,0 -3.9745,0c-1.49364,0 -2.67595,0 -4.15382,0c-1.18231,0 -2.36461,0 -3.84249,0c-1.18228,0 -2.6582,0 -3.78927,0c-1.40892,0 -2.66805,0 -4.19915,0c-1.09952,0 -2.45524,0 -3.85627,0c-1.28674,0 -2.35868,0 -3.82055,0c-1.42493,0 -2.8299,0 -4.13831,0c-1.11901,0 -2.44909,-0.00092 -3.55355,0c-1.46926,0.00119 -2.91571,-0.05819 -4.20136,0.62377c-0.99045,0.52537 -2.347,1.11103 -3.47893,1.1426c-1.46886,0.04097 -2.58365,-0.18752 -4.09864,0.02127c-1.42387,0.19626 -2.34865,1.06277 -3.84815,1.53497c-1.18472,0.37304 -2.55386,0.29537 -3.72647,1.09926c-1.04335,0.71526 -2.36461,0.88437 -3.69469,0.88437c-1.18231,0 -2.51239,0.1011 -3.69469,0.88437c-1.18231,0.78327 -2.51239,0.88437 -3.84249,0.88437c-1.33008,0 -2.56328,-0.34659 -3.84247,0.1011c-1.29704,0.45395 -2.36259,1.61707 -3.69273,1.66765c-1.30774,0.04971 -2.52622,0.16145 -3.51144,1.01646c-1.06085,0.92065 -2.10646,1.14379 -2.35277,2.52104l-1.28478,0.06369l-0.81898,1.08128" id="svg_2" stroke-width="5" fill="#89db36"/>
  <path stroke="#2bbf2b" transform="rotate(-2.4939651489257812 286.4392700195317,226.8793334960941) " d="m86.70333,374.54642c0,-2.90328 -0.15871,-4.56075 0.53366,-5.808c0.78603,-1.41598 1.9719,-2.24367 2.93991,-3.53271c0.87942,-1.17105 0.88281,-2.70637 1.85418,-3.84057c0.96728,-1.12947 2.07644,-1.84722 3.10788,-2.66152c1.07554,-0.84909 2.2476,-1.2059 3.54093,-1.78123c1.0882,-0.48411 2.31798,-1.20348 3.15554,-2.05612c0.91158,-0.92805 2.06803,-1.10446 2.93993,-2.09022c0.79579,-0.8997 1.13881,-2.13706 2.02945,-2.90328c1.09335,-0.94058 2.09057,-1.35918 3.13714,-2.38393c1.05414,-1.03212 2.14903,-1.82447 2.99035,-2.90328c0.8353,-1.07106 2.27769,-1.78446 3.31015,-2.64361c1.10621,-0.92052 2.7112,-1.22031 3.31973,-2.29347c0.75624,-1.33364 1.61813,-2.31004 2.79843,-3.12535c1.16899,-0.80752 1.88537,-1.91886 2.9611,-2.47526c1.32662,-0.68613 2.27374,-1.05503 3.32176,-1.79677c1.07044,-0.75761 2.28182,-1.44814 3.45617,-2.05849c1.10919,-0.57646 2.19394,-1.19982 3.6317,-1.48751c1.26079,-0.2523 2.50069,-1.15211 3.68215,-1.74358c1.02549,-0.51337 2.31789,-1.28916 3.40574,-1.91278c1.13662,-0.65154 2.4057,-1.02489 3.6244,-1.64873c1.07753,-0.55158 1.89465,-1.39971 3.20927,-1.78913c1.30476,-0.38652 2.42572,-1.48329 3.7588,-1.69896c1.39545,-0.22579 2.19858,-1.33667 3.6244,-1.7257c1.28748,-0.35127 2.11059,-1.31529 3.22541,-1.78031c1.23736,-0.51611 2.82496,0.13172 3.91819,-0.51931c1.3075,-0.77861 2.47342,-0.91538 3.78303,-1.36262c1.32775,-0.45346 2.33749,-1.32135 3.63197,-2.05174c1.06633,-0.60166 2.36434,-1.22053 3.48692,-1.46516c1.51868,-0.33096 2.70397,-0.90766 3.89501,-1.84553c1.12747,-0.88782 2.36141,-1.48496 3.5452,-1.97681c1.05716,-0.43923 2.44636,-1.65158 3.43197,-2.36602c1.1797,-0.85514 2.64643,-1.09591 3.64784,-1.68633c1.29778,-0.76516 2.21198,-1.82477 3.51292,-2.78285c1.01752,-0.74938 2.53708,-1.31191 3.73435,-1.54181c1.09519,-0.2103 2.36857,-0.86469 3.59741,-1.80704c0.97393,-0.74688 2.00281,-1.47947 3.34116,-2.44856c1.16684,-0.84487 2.53888,-0.78633 3.94015,-1.46662c1.01163,-0.49113 1.84448,-2.19289 3.05895,-2.8407c1.12389,-0.59948 2.57326,-0.39279 3.78303,-1.17494c1.20457,-0.7788 2.37829,-1.41181 3.4824,-2.14309c1.16638,-0.7725 2.57044,-0.50052 3.97068,-0.50052c1.40323,0 2.71796,0 4.04759,0c1.18811,0 2.64987,-0.45854 4.0206,0.0003c1.1649,0.38994 2.19032,1.54191 3.5452,1.7624c1.37167,0.2232 2.35102,1.40111 3.6317,1.7254c1.33161,0.3372 2.42738,0.84788 3.78303,1.50537c1.24932,0.60593 2.20692,0.862 3.27863,1.7624c1.04825,0.88072 2.08851,1.6305 3.4993,2.01944c1.28677,0.35476 2.21006,1.06122 3.17092,1.78031c1.09312,0.81809 2.19741,1.68872 3.54093,1.7812c1.21732,0.0838 1.96817,1.64591 3.28265,1.7624c1.34399,0.11911 2.21267,1.31653 3.48845,1.69896c1.31413,0.39392 2.88804,-0.2174 3.87079,0.68497c0.93006,0.85399 2.04688,1.14071 3.40876,1.14087c1.36165,0.00016 2.22999,1.00101 3.36741,1.69896c1.15054,0.706 2.71771,0.06454 4.02512,0.06344c1.38409,-0.00118 1.38686,-1.41227 1.38409,-2.88329c-0.00342,-1.80764 -0.02288,-3.23192 -0.33517,-4.90916c-0.2701,-1.4507 -0.58406,-2.45014 -1.17804,-4.54437c-0.30019,-1.05839 -0.75663,-2.64361 -1.05924,-3.70106c-0.60511,-2.11456 -1.06418,-3.67508 -1.30741,-4.69505c-0.44653,-1.87255 -0.48807,-3.53772 -0.78688,-4.84543c-0.36055,-1.57795 -1.26719,-3.17763 -1.35458,-4.38251c-0.12468,-1.71908 0.03706,-3.3232 -0.04766,-4.97938c-0.06253,-1.22217 -0.84864,-2.63016 -1.31321,-4.39896c-0.3037,-1.15628 -0.10178,-2.92312 -0.18386,-4.72089c-0.06465,-1.41593 -0.91429,-2.65326 -1.261,-4.11227c-0.37401,-1.57389 -0.24879,-2.92794 -0.25221,-4.7538c-0.00279,-1.50155 0.07917,-3.19721 -0.12912,-4.53055c-0.27885,-1.78507 -1.02419,-3.01657 -1.2976,-4.65538c-0.24801,-1.48654 -0.08649,-2.89475 -0.08649,-4.55141c0,-1.7765 0,-3.10889 0,-4.71384c0,-1.7257 -0.69292,-2.96174 -1.261,-4.40601c-0.51483,-1.30892 -0.25221,-2.89534 -0.25221,-4.44272c0,-1.68899 0,-3.23636 0,-4.89803c0,-1.58381 0,-3.08891 0,-4.75848c0,-1.40993 0,-2.89534 0,-4.44272c0,-1.68899 0,-3.22843 0,-4.87218c0,-1.60966 0,-3.11476 0,-4.6915c0,-1.56149 1.42669,-4.65775 0,-4.65775c-1.14525,0 0.50964,2.54037 1.47488,3.55213c0.87573,0.91796 1.79193,1.92585 2.635,2.92323c0.99983,1.18282 1.87983,2.02667 3.0022,2.75523c1.15562,0.75013 2.32445,1.44271 3.63172,2.17009c1.29023,0.71789 2.17746,1.5453 3.6317,1.93954c1.32722,0.35982 2.4302,0.84003 3.78303,1.50537c1.18469,0.58265 2.49254,0.2412 3.61558,1.04336c1.24694,0.89067 2.49928,0.69304 3.64781,1.16317c1.29524,0.53015 2.35793,1.60732 3.32908,2.49322c0.93223,0.85038 2.28949,0.63078 3.6317,0.9c1.26075,0.25287 2.40669,1.54842 3.6317,1.74127c1.35251,0.21293 2.39325,0.84353 3.58127,1.76474c0.96377,0.74733 2.62595,1.18541 3.66601,1.87051c1.2716,0.83764 1.67581,2.38038 2.62087,3.37881c0.94525,0.99864 2.33147,1.73855 3.26526,2.6815c1.14775,1.159 2.04709,2.00804 3.36062,2.73644c1.26638,0.70226 1.99463,2.03444 3.02642,2.80251c1.24685,0.92816 2.4181,1.61434 3.6075,2.38953c1.16141,0.75699 1.99805,1.49553 3.20195,2.26526c0.98071,0.62702 2.26982,1.35472 3.48037,2.14309c1.21055,0.78837 2.40808,1.29303 3.41558,2.12281c1.08591,0.89438 2.13506,1.5478 3.76132,2.19037c1.28966,0.50955 2.12352,1.43981 3.26425,2.54139c0.99489,0.96078 2.4694,1.29927 3.32908,2.1525c1.12784,1.11941 2.17067,1.99424 3.32903,2.5966c1.12516,0.58509 2.403,1.57244 3.32908,2.49556c0.86771,0.86496 1.51321,0 1.51321,-1.64962c0,-1.51478 0,-3.14646 0,-4.66684c0,-1.58852 -0.2133,-3.19734 0.25219,-4.84543c0.34367,-1.21676 1.21775,-2.58248 1.26102,-4.17339c0.04623,-1.70044 0,-2.86213 0,-4.63863c0,-1.39584 -0.00554,-3.20643 0,-4.4307c0.00808,-1.79185 0.68544,-3.10158 1.26102,-4.67506c0.48452,-1.32452 0.32104,-3.00764 1.00879,-4.40601c0.61192,-1.24422 0.75661,-2.81986 0.75661,-4.40601c0,-1.40993 -0.1734,-3.01633 0.05449,-4.6457c0.21497,-1.53683 1.03382,-2.64248 1.37222,-4.59428c0.25731,-1.4841 0.08649,-3.09685 0.08649,-4.6454c0,-1.47573 -0.00808,-2.98906 0,-4.61986c0.00808,-1.6309 0.75633,-2.62524 2.15681,-2.64361c1.40316,-0.01839 2.63191,0.29735 3.46628,1.26189c1.0855,1.25484 2.26298,1.96915 3.60722,2.26322c1.20436,0.26346 2.03347,1.5374 3.10132,1.74331c1.54166,0.29729 2.28067,1.44645 3.65391,1.7624c1.38959,0.31975 3.18786,0.4342 3.68619,-0.60273c0.64213,-1.33616 0.49066,-2.95555 1.08346,-4.1628c0.64748,-1.31858 1.46209,-2.67536 1.92679,-4.07233c0.42425,-1.27539 0.10007,-2.95311 0.77277,-4.36137c0.67431,-1.41162 1.41887,-2.80762 2.01763,-4.11227c0.60223,-1.31215 0.74889,-2.64672 1.78156,-3.75511c0.9428,-1.01192 1.67636,-1.45737 3.01026,-2.11958c0.96898,-0.48105 1.71187,-2.33007 2.89929,-3.08068c1.08794,-0.68771 2.03827,-1.53355 3.15355,-2.20653c1.14091,-0.68847 2.37233,-1.24949 3.47358,-2.09019c1.21083,-0.92436 1.96147,-2.22374 3.18454,-2.85863c1.18377,-0.61451 2.28233,-1.68858 3.48845,-2.42858c1.08771,-0.66733 2.28926,-1.53656 3.28872,-2.68943c0.83936,-0.9682 2.27309,-1.44443 3.13032,-2.60571c0.89464,-1.21192 1.34055,-2.26037 2.65218,-2.98817c1.26624,-0.70261 2.11849,-1.84582 3.02642,-2.90325c1.05922,-1.23365 1.83933,-2.49002 2.92954,-3.28512c1.17758,-0.85883 2.65444,-0.67432 3.9447,-1.38995c1.22528,-0.67959 2.43158,-1.16357 3.41558,-2.05878c1.16312,-1.05818 2.07489,-2.19781 3.25746,-2.51407c1.2891,-0.34476 2.63246,-0.81316 3.42486,-2.20537c0.72331,-1.27084 2.04778,-1.07953 3.30461,-1.80234c1.07072,-0.61575 2.00576,-2.12195 2.95507,-3.22757c0.89985,-1.04804 2.20189,-1.32568 3.28165,-2.05964c1.21461,-0.82562 1.93488,-2.25356 2.94367,-3.42848c0.83128,-0.96814 1.79467,-2.09019 2.80577,-3.26777c0.83807,-0.97608 1.40473,-2.43191 2.23827,-3.45139c0.70765,-0.8655 1.37232,-2.08511 2.26778,-3.061c0.8098,-0.88257 1.82977,-1.48816 2.84484,-2.65299c0.93056,-1.06781 1.42926,-2.10617 2.23047,-3.034c0.78648,-0.91076 1.75593,-1.49063 2.92252,-2.36366c1.07049,-0.80112 1.41009,-2.22974 2.34449,-3.31803c0.9344,-1.08827 1.71695,-1.87137 2.84886,-2.73055c1.06638,-0.80945 2.03966,-1.48923 2.81256,-2.32636c0.85991,-0.93138 1.50125,-2.01785 2.28593,-2.96085c0.97245,-1.16868 1.95219,-1.28593 2.86576,-2.29963c0.97637,-1.08343 1.12498,-2.05945 1.87969,-3.27425c0.76575,-1.23261 1.92943,-1.42146 2.60499,-2.59779c0.7851,-1.36699 0.89251,-2.41143 1.5997,-3.40378c0.72442,-1.01656 1.17458,-1.93174 1.51344,-3.41437c0.31259,-1.36759 1.36373,-1.88201 1.51298,-3.52481c0.12681,-1.39561 1.50642,-1.47307 1.51321,-3.0419l0,-1.56149l0,-1.43459l0,-1.63434" id="svg_3" stroke-linecap="null" stroke-linejoin="null" stroke-dasharray="null" stroke-width="9" fill="none"/>
 </g>
</svg>
