<?xml version="1.0" encoding="utf-8"?>
<!-- Generator: Adobe Illustrator 22.1.0, SVG Export Plug-In . SVG Version: 6.00 Build 0)  -->
<svg version="1.1" id="Ebene_1" xmlns:svg="http://www.w3.org/2000/svg"
	 xmlns="http://www.w3.org/2000/svg" xmlns:xlink="http://www.w3.org/1999/xlink" x="0px" y="0px" viewBox="0 0 640 480"
	 style="enable-background:new 0 0 640 480;" xml:space="preserve">
<style type="text/css">
	.st0{clip-path:url(#svg_2_1_);fill:none;stroke:#2BBF2B;stroke-width:9;}
</style>
<g>
	<defs>
		<path id="svg_2" d="M53.3,445.9c0.1-12.5,1.9-24.9,4.8-37.1c2.3-9.8,5.3-19.3,7.9-29c2.4-8.6,3.7-17.4,6.2-26
			c5.3-18,12.5-35.4,18.6-53.1c0.1-0.2,0.1-0.3,0.2-0.5c9.4-27.6,20.5-54.7,35-80c26.5-46.6,66-87.9,116.6-105.9
			C285.2,99,331.9,101.6,377,96.5c63.1-7.1,125.1-29.9,174.7-69.7c3.9-3.1,9.6-6.4,13.4-3.2c1.6,1.4,2.3,3.5,2.8,5.5
			c19.2,69.2,27.3,143.7,6.8,212.6C557,301.5,518,354.2,467.6,390.6s-112,56.8-174.2,60c-80.1,4.1-163.3-18.9-239.2,7"/>
	</defs>
	<use xlink:href="#svg_2"  style="overflow:visible;fill:#89DB36;"/>
	<clipPath id="svg_2_1_">
		<use xlink:href="#svg_2"  style="overflow:visible;"/>
	</clipPath>
	<title>ContemPlant</title>
	<path id="svg_3" class="st0" d="M54,463.4c-0.8-10.3,6.2-19.3,13.6-25.7c24.1-21.2,40.8-43,69.9-57.5
		c21.2-10.5,40.7-23.3,60.9-36.2c13.3-8.5,26.1-20.7,42.6-16.3c18.1,4.8,36.6,17.2,54.3,24.3c12.6,5,3.5-21.6,2.2-27.3
		c-8.3-38.1-20.5-77.9-17.1-117.6c0.3-3,4-4.5,6.2-2.4c9.8,9.5,23.3,12.2,35.8,17.2c4.6,1.9,9.2,3.7,13.4,6.4
		c4.4,2.8,8.3,6.5,12.3,10c13,11.4,30.4,26.1,46.7,32.4c1.9,0.8,4.2-0.3,4.8-2.3c4.9-16.3,3.2-37,4.5-53.8
		c1-12.6-2.5-27.7,12.8-23.4c10.2,2.9,11.4,9,16.1-4c3.3-9,4.3-17.6,10.5-25.2c3-3.7,6.8-6.6,10.4-9.6c12.5-10.4,22.7-24,35.4-33.9
		c7-5.4,13.8-10.4,20-17.1c7.9-8.6,14.8-18.2,21.9-27.5c3.6-4.8,7.2-9.5,10.8-14.3c9-12.1,26.4-31.7,24-49.5"/>
</g>
</svg>
